<?xml version="1.0" encoding="UTF-8" standalone="no"?>
<!-- Created with Inkscape (http://www.inkscape.org/) -->

<svg
   xmlns:dc="http://purl.org/dc/elements/1.1/"
   xmlns:cc="http://creativecommons.org/ns#"
   xmlns:rdf="http://www.w3.org/1999/02/22-rdf-syntax-ns#"
   xmlns:svg="http://www.w3.org/2000/svg"
   xmlns="http://www.w3.org/2000/svg"
   xmlns:sodipodi="http://sodipodi.sourceforge.net/DTD/sodipodi-0.dtd"
   xmlns:inkscape="http://www.inkscape.org/namespaces/inkscape"
   width="15.01003mm"
   height="10.147723mm"
   viewBox="0 0 15.010029 10.147723"
   version="1.1"
   id="svg8"
   inkscape:version="0.92.1 r15371"
   sodipodi:docname="1.svg">
  <defs
     id="defs2" />
  <sodipodi:namedview
     id="base"
     pagecolor="#ffffff"
     bordercolor="#666666"
     borderopacity="1.0"
     inkscape:pageopacity="0.0"
     inkscape:pageshadow="2"
     inkscape:zoom="2.8"
     inkscape:cx="12.642932"
     inkscape:cy="-30.927082"
     inkscape:document-units="mm"
     inkscape:current-layer="layer1"
     showgrid="false"
     fit-margin-top="0"
     fit-margin-left="0"
     fit-margin-right="0"
     fit-margin-bottom="0"
     inkscape:window-width="1366"
     inkscape:window-height="715"
     inkscape:window-x="-8"
     inkscape:window-y="-8"
     inkscape:window-maximized="1" />
  <metadata
     id="metadata5">
    <rdf:RDF>
      <cc:Work
         rdf:about="">
        <dc:format>image/svg+xml</dc:format>
        <dc:type
           rdf:resource="http://purl.org/dc/dcmitype/StillImage" />
        <dc:title></dc:title>
      </cc:Work>
    </rdf:RDF>
  </metadata>
  <g
     inkscape:label="Layer 1"
     inkscape:groupmode="layer"
     id="layer1"
     transform="translate(-1.8871042,-0.88082835)">
    <path
       style="fill:#030303;stroke-width:0.02454387"
       d="M 6.8878468,11.01796 C 6.3744065,10.9496 6.2147647,10.91991 6.0615459,10.864297 5.7666539,10.757254 5.6874681,10.666908 5.6222864,10.363117 c -0.019335,-0.09012 -0.029196,-0.114745 -0.022802,-0.05696 0.0062,0.05601 0.017808,0.160606 0.025805,0.232452 l 0.01454,0.13063 -0.079909,0.02772 c -0.1705228,0.05916 -0.5721561,0.107666 -0.991382,0.11973 -0.3800142,0.01093 -0.4703139,0.0056 -0.6828821,-0.04019 C 3.7392807,10.74497 3.5991804,10.697442 3.5375403,10.658431 3.2667593,10.487049 3.1543854,10.088799 3.3011642,9.820726 3.3813925,9.6741998 3.5500552,9.5168485 3.6669683,9.4794539 3.812343,9.4329521 4.1114098,9.4437008 4.2869246,9.5017256 4.530328,9.5821964 4.5323303,9.5812565 4.5169043,9.3940467 4.5096945,9.306555 4.48757,9.1032286 4.4677388,8.9422158 4.4175087,8.5343904 4.3607215,7.7589496 4.3456443,7.274991 4.334265,6.9097276 4.3272908,6.8572046 4.2779624,6.7652735 4.1854179,6.5928022 4.164311,6.4255787 4.2069778,6.2028829 4.2272488,6.0970797 4.267349,5.9585485 4.2960891,5.8950369 4.3746573,5.7214114 4.5861627,5.5093888 4.7972526,5.3926479 4.8981095,5.3368706 4.980683,5.2855079 4.9807492,5.2785097 4.9808095,5.2715068 4.9038003,5.2205646 4.8096045,5.1652964 4.3928101,4.9207477 4.1198525,4.6612258 3.8621977,4.2645251 3.7870925,4.1488882 3.7176654,4.054259 3.7079152,4.0542385 3.6981652,4.054218 3.5302944,4.1105001 3.334869,4.1793103 2.897787,4.3332086 2.629334,4.3801171 2.4436797,4.3350357 2.2917215,4.2981371 2.2278804,4.2339256 2.2280942,4.1182028 2.2284038,3.9505035 2.3889866,3.8042475 2.6231292,3.7584112 c 0.048982,-0.00959 0.095619,-0.028798 0.1036385,-0.04269 0.023464,-0.040641 -0.1297141,0.00189 -0.2903927,0.080636 C 2.3264861,3.8502097 2.272958,3.8959356 2.2159407,3.9846626 2.16179,4.0689282 2.1247054,4.1018111 2.0839192,4.1017254 1.9999841,4.1015474 1.9069641,4.0014763 1.8913419,3.8945463 1.8795842,3.8140643 1.8888345,3.7892578 1.9637112,3.7005002 2.010929,3.6445281 2.1248938,3.5563745 2.2169665,3.5046008 2.3915645,3.4064229 2.4268586,3.3579254 2.2740136,3.4262116 2.1030708,3.5025841 2.0976168,3.4534325 2.2585954,3.2872599 2.3889704,3.1526786 2.5894611,3.0544088 3.0181534,2.9149648 3.4557447,2.7726269 3.5254742,2.7190947 3.4718821,2.5666289 3.4586019,2.5288471 3.4478503,2.4360906 3.4479899,2.3605034 3.4482077,2.2425892 3.4588741,2.2101066 3.5230995,2.13177 3.6507973,1.9760154 3.8625168,1.8996452 4.0039222,1.9583289 c 0.072174,0.029953 0.1072967,0.151403 0.1068936,0.3696255 -3.847e-4,0.2073959 5.967e-4,0.2108485 0.093981,0.3303985 0.1111668,0.1423181 0.1417064,0.2191939 0.1414536,0.3560746 -1.205e-4,0.064753 0.030189,0.166569 0.084791,0.2848318 0.1035679,0.2243236 0.203655,0.4005224 0.2275732,0.4006336 0.00976,4.63e-5 0.017909,-0.084513 0.0181,-0.1879068 C 4.6771448,3.278185 4.7572717,2.9697721 4.868719,2.7729379 4.9131967,2.6943834 5.0245322,2.5398984 5.1161308,2.4296408 5.2077296,2.3193828 5.310146,2.1853784 5.3437233,2.1318548 5.3773006,2.0783303 5.4359957,2.0179737 5.4741572,1.9977275 5.5123181,1.977481 5.6149151,1.9114053 5.7021495,1.8508938 5.8818126,1.7262664 6.1823238,1.5719343 6.2899292,1.5490302 c 0.08629,-0.018367 0.1050409,-0.044326 0.074541,-0.1031971 -0.024958,-0.048173 0.026379,-0.1854429 0.069319,-0.1853527 0.013076,2.75e-5 0.089106,0.029776 0.1689536,0.066108 0.1756642,0.079931 0.1821599,0.077658 0.4677328,-0.1636901 0.2026408,-0.17125979 0.3445394,-0.28210472 0.3610937,-0.28206994 0.00485,1.015e-5 0.00445,0.11869379 -7.882e-4,0.26374174 -0.00576,0.1589914 5.146e-4,0.2840719 0.015816,0.3149614 0.014492,0.029251 0.078997,0.06985 0.1503289,0.094614 0.2897224,0.1005814 0.6546483,0.3390266 0.9255085,0.6047349 l 0.16221,0.1591228 0.204441,-0.03053 c 0.1124421,-0.016791 0.3622492,-0.071146 0.5551256,-0.1207867 0.192878,-0.04964 0.3573057,-0.083109 0.3653984,-0.074375 0.00808,0.00873 -0.063795,0.1901994 -0.1597529,0.4032553 C 9.4493825,2.940691 9.2623081,3.503093 9.211281,3.8140576 9.191928,3.9319884 9.173792,4.1427901 9.170981,4.2825043 9.168151,4.42222 9.160742,4.5509605 9.154488,4.5685954 9.148238,4.5862314 9.0418482,4.6526534 8.9180799,4.7162017 l -0.2250327,0.1155431 0.049814,0.057241 c 0.0274,0.031483 0.049797,0.065093 0.049781,0.074688 -1.83e-5,0.0096 -0.058961,0.017323 -0.1309818,0.017172 C 8.5722647,4.9806586 8.4689529,5.0056804 8.336055,5.0597093 7.979846,5.2045229 8.0263353,5.2135401 8.6440237,5.1194391 9.1020395,5.0496639 9.223769,5.0216626 9.2994079,4.968678 9.3266579,4.9495897 9.4486117,4.8992059 9.5704171,4.8567138 9.822511,4.7687697 9.8847047,4.728469 10.083486,4.5242495 c 0.146688,-0.1507017 0.297985,-0.252386 0.375288,-0.2522235 0.02428,4.94e-5 0.07906,0.037779 0.121726,0.083841 0.09846,0.1062805 0.148546,0.3262172 0.105797,0.4645667 -0.03078,0.099601 -0.0753,0.1298233 -0.315494,0.2141209 -0.195782,0.068713 -0.220221,0.1135649 -0.110495,0.2027838 0.04408,0.035837 0.173862,0.1621821 0.288414,0.2807666 0.23101,0.2391413 0.348723,0.4475154 0.34841,0.6167483 -2.32e-4,0.1169419 -0.03557,0.1255723 -0.112735,0.027511 -0.04587,-0.058303 -0.04416,-0.050802 0.01014,0.04456 0.07979,0.1401106 0.08544,0.2997268 0.01422,0.4023138 -0.05774,0.083184 -0.163872,0.1054852 -0.180042,0.037828 -0.009,-0.037589 -0.01153,-0.035872 -0.01386,0.00936 -0.0048,0.094177 -0.110874,0.1606759 -0.255713,0.1603715 C 10.204138,6.816458 10.105921,6.7666745 9.8312032,6.5490885 9.7207065,6.4615718 9.5475551,6.3303077 9.4464215,6.2573908 9.3452887,6.1844745 9.2073836,6.0680252 9.1399664,5.9986155 9.0689871,5.9255378 9.0021087,5.8771966 8.9810842,5.8837747 8.3174811,6.0914089 7.3778962,6.1583689 6.5537892,6.0567589 6.413077,6.0394068 6.4108512,6.0401536 6.3062865,6.1396652 L 6.200773,6.2400809 6.206903,6.4832744 C 6.212413,6.7016454 6.2066157,6.7409639 6.150225,6.8684954 6.115683,6.9466104 6.050735,7.0575418 6.0058994,7.11501 5.9610644,7.172479 5.9243634,7.229342 5.9243404,7.2413746 5.9241642,7.3366176 6.2701304,8.5038384 6.2916923,8.480746 6.2967623,8.475326 6.2791933,8.403093 6.2526453,8.3202554 6.1645492,8.0454417 6.0462577,7.5966849 6.062008,7.5971239 c 0.00853,1.978e-4 0.078088,0.1037007 0.1545698,0.2299177 0.1909448,0.3151128 0.3013248,0.4435534 0.447669,0.52092 0.3331003,0.1760951 0.6298883,0.078946 0.7151432,-0.234091 0.073004,-0.268053 0.2731302,-0.4036287 0.5617699,-0.3805707 0.102517,0.00819 0.1608734,0.02954 0.2345736,0.085825 C 8.3433898,7.9471607 8.3729193,8.0101715 8.3712808,8.2363867 8.3700456,8.4067482 8.359131,8.4577254 8.293185,8.6010282 8.1263773,8.9635276 7.8889755,9.1464344 7.4426284,9.2563422 7.0661338,9.3490497 6.721311,9.2936907 6.5559666,9.1139893 6.5212948,9.0763092 6.464069,8.9598782 6.4287986,8.8552568 6.3935279,8.7506351 6.3602185,8.6698032 6.3547778,8.6756308 c -0.00544,0.00583 0.028443,0.1178328 0.075298,0.2489051 0.046854,0.1310699 0.1321084,0.3747266 0.1894525,0.5414584 0.057344,0.1667326 0.1093607,0.308652 0.1155913,0.3153779 0.00623,0.0067 0.099576,0.00801 0.2074324,0.00287 0.3829803,-0.018216 0.692821,-0.00757 0.7839051,0.026823 0.1099208,0.04155 0.2317916,0.1532195 0.3029846,0.2776218 0.080135,0.140027 0.075872,0.387641 -0.00934,0.542787 -0.076967,0.140132 -0.229775,0.292905 -0.3477843,0.347709 -0.085673,0.03979 -0.5897011,0.06468 -0.7844918,0.03875 z M 5.5797179,10.083435 c -0.00654,-0.01751 -0.011933,-0.0033 -0.011998,0.03178 -6.48e-5,0.03499 0.00528,0.04932 0.01188,0.03183 0.00659,-0.01749 0.00665,-0.04612 1.159e-4,-0.06362 z M 5.5054708,9.7179635 C 5.4714053,9.5824593 5.4066169,9.3442769 5.3614961,9.1886698 5.2145026,8.6817313 5.0817165,8.0417422 5.0135778,7.5118064 5.0050262,7.4452997 4.9887003,7.3908673 4.9772982,7.390843 c -0.027028,-4.97e-5 -0.014712,0.089117 0.096694,0.700076 0.09898,0.5428091 0.1121719,0.5974892 0.3274058,1.3570907 0.076581,0.2702697 0.1404277,0.5166312 0.1418808,0.5474711 0.00197,0.041652 0.00541,0.044852 0.013386,0.012464 0.00591,-0.023987 -0.017129,-0.1544776 -0.051194,-0.2899815 z M 10.578162,6.4378831 c -0.05179,-0.1082155 -0.06868,-0.099861 -0.0202,0.01 0.02156,0.048864 0.04341,0.084329 0.04855,0.078817 0.0051,-0.00553 -0.0076,-0.045478 -0.02835,-0.088815 z M 7.2173686,5.2705057 C 7.6631762,5.2076754 8.1773804,5.0477808 8.3907827,4.9056266 8.6191641,4.753494 8.8121099,4.4892906 8.8890454,4.2233464 8.9443859,4.0320525 8.9506847,3.8113608 8.9035826,3.7139588 8.7933684,3.4860323 8.5462882,3.3741701 8.0445271,3.3250319 7.6267141,3.2841142 7.3092683,3.1799084 7.1689458,3.0376106 7.0793681,2.9467725 7.108414,2.9431997 7.2848709,3.0233494 7.4457319,3.096417 7.4673119,3.099746 7.728561,3.091799 7.9754032,3.0842885 8.013948,3.0766122 8.1098072,3.0158493 8.3312102,2.8755083 8.4571517,2.6680865 8.4283091,2.491288 8.3877975,2.2429545 8.1548342,1.9550662 7.8832528,1.8177241 7.5664512,1.6575139 7.2530397,1.696161 6.7237455,1.9607056 6.4922512,2.0764074 6.1773138,2.2836751 6.1303733,2.3512174 6.1146689,2.3738134 6.0948993,2.4348795 6.0864407,2.486918 6.0761435,2.5502663 6.0440121,2.6069677 5.9892065,2.6585 5.9193027,2.7242296 5.8883526,2.7354273 5.7772293,2.7351937 5.6222414,2.7348674 5.5103983,2.6885343 5.3745692,2.5683836 5.3193901,2.5195733 5.2589673,2.4796057 5.2402961,2.4795665 5.2084086,2.4794973 5.0477577,2.6833373 4.9532229,2.8438131 4.8880149,2.9545057 4.7952895,3.3802903 4.7951041,3.5698769 4.7949001,3.7826664 4.9291537,4.2234152 5.0748828,4.4883487 5.2785839,4.858675 5.5063326,5.0326345 5.9636818,5.1672325 6.4578063,5.3126538 6.7484381,5.3365942 7.2173686,5.2705057 Z M 5.9795068,5.0904968 C 5.6867835,5.0077222 5.5765293,4.9466704 5.4443974,4.7941884 5.1453994,4.4491408 5.0453509,3.8253613 5.2081598,3.3213 L 5.2691382,3.132508 5.210272,2.9733908 C 5.152802,2.8180432 5.132679,2.6574892 5.17069,2.6575691 5.181136,2.657591 5.20925,2.7177751 5.233165,2.7913124 5.268036,2.8985395 5.321576,2.9729865 5.5035428,3.167267 5.8602615,3.5481241 6.2112936,3.7461522 6.8386289,3.9204325 7.1066102,3.9948795 7.2055981,4.0106905 7.406371,4.0111135 7.6812527,4.0116892 7.8730339,3.9804165 8.0267826,3.9099401 8.1297201,3.8627541 8.131961,3.8592031 8.134011,3.7399607 l 0.00208,-0.1217869 0.035961,0.1100205 c 0.037189,0.1137853 0.1389741,0.2413959 0.3026181,0.3794002 0.051991,0.043848 0.087609,0.087171 0.079145,0.096276 -0.00847,0.00911 -0.079073,-0.018181 -0.1569108,-0.060632 L 8.2553907,4.0660508 8.1042048,4.3343665 C 7.9249141,4.6525617 7.7437912,4.86 7.5494543,4.9697188 7.2909945,5.11564 7.1922278,5.1353618 6.6738269,5.1445615 6.2325807,5.1523876 6.1853947,5.1487171 5.9795037,5.090497 Z m 0.9746798,0.00408 C 7.0562908,5.0768157 7.148757,5.0468224 7.1596675,5.0279251 7.2037279,4.951611 7.1261168,4.8403696 6.9689183,4.7545187 6.699289,4.6072652 6.2663687,4.5883162 5.9586084,4.7102976 5.8033505,4.7718336 5.7700425,4.758251 5.8699115,4.6741294 c 0.0724,-0.060985 0.074841,-0.095486 0.00944,-0.1333026 -0.1160816,-0.067111 -0.4097984,-0.00504 -0.4404162,0.093066 -0.025738,0.082474 0.2702997,0.304904 0.5217077,0.3919889 0.2824281,0.09783 0.6714519,0.1247276 0.9935528,0.068696 z M 7.636628,2.8956296 C 7.6367203,2.8342739 7.5262054,2.6601752 7.4354283,2.5787286 7.3961144,2.5434558 7.2950585,2.4707094 7.2108598,2.4170687 7.0616919,2.3220396 7.0505005,2.3191811 6.7737555,2.3054295 6.5141184,2.2925284 6.4965465,2.288639 6.5690493,2.2601244 6.7994705,2.1694983 7.0947838,2.2039594 7.3224158,2.3480368 7.5358203,2.4831092 7.7321616,2.76962 7.695606,2.892614 7.676767,2.956006 7.636513,2.958064 7.636629,2.895624 Z M 6.4346566,1.9892904 C 6.6853595,1.8211518 6.8697345,1.6416538 6.8508852,1.5840731 6.829125,1.5176026 6.3214731,1.6213195 6.1182868,1.733749 l -0.067705,0.037463 0.060142,0.077159 c 0.033078,0.042437 0.060102,0.099184 0.060053,0.1261055 -1.159e-4,0.063544 -0.00967,0.061786 -0.080667,-0.014847 -0.062258,-0.067204 -0.1833411,-0.085671 -0.2506185,-0.038225 -0.029152,0.020559 -0.01102,0.050773 0.100735,0.1678579 C 6.068985,2.2241612 6.0794345,2.230019 6.1293927,2.1953028 6.1584765,2.175093 6.2958449,2.0823864 6.4346566,1.9892904 Z"
       id="path4496"
       inkscape:connector-curvature="0" />
  </g>
</svg>
