<?xml version="1.0" encoding="UTF-8" standalone="no"?>
<svg
   xmlns:dc="http://purl.org/dc/elements/1.1/"
   xmlns:cc="http://creativecommons.org/ns#"
   xmlns:rdf="http://www.w3.org/1999/02/22-rdf-syntax-ns#"
   xmlns:svg="http://www.w3.org/2000/svg"
   xmlns="http://www.w3.org/2000/svg"
   id="svg8"
   version="1.1"
   viewBox="0 0 9.2604168 37.041666"
   height="140"
   width="35">
  <defs
     id="defs2" />
  <metadata
     id="metadata5">
    <rdf:RDF>
      <cc:Work
         rdf:about="">
        <dc:format>image/svg+xml</dc:format>
        <dc:type
           rdf:resource="http://purl.org/dc/dcmitype/StillImage" />
        <dc:title></dc:title>
      </cc:Work>
    </rdf:RDF>
  </metadata>
  <g
     transform="translate(-1.3634578,-75.820017)"
     id="layer1">
    <path
       id="path4496"
       d="m 8.0952904,79.76035 c -0.9127839,2.061431 -2.7415646,6.188533 -4.0639569,9.171336 -1.3223942,2.982802 -2.4012629,5.441849 -2.3974866,5.464551 0.00374,0.02271 1.4552553,3.443638 3.2255075,7.602073 1.7702523,4.15844 3.5398195,8.31717 3.9323717,9.24162 0.3925513,0.92445 0.7263544,1.68134 0.741782,1.68198 0.015431,6.9e-4 0.115122,-0.21278 0.2215409,-0.47429 l 0.1934887,-0.47547 -0.1886711,-0.45561 C 9.6560976,111.26595 8.0501791,107.48784 6.1911582,103.12077 4.3321384,98.753678 2.7384251,95.005654 2.6495732,94.791822 L 2.4880251,94.403039 2.8761513,93.503301 c 0.2134701,-0.494854 1.9344788,-4.386993 3.8244643,-8.649193 1.8899856,-4.262205 3.4382874,-7.78696 3.4406714,-7.832793 0.0024,-0.04583 -0.08358,-0.291615 -0.1910286,-0.54618 L 9.7548955,76.012291 Z"
       style="fill:#ffffff;stroke-width:0.04301558" />
  </g>
</svg>
